<svg xmlns="http://www.w3.org/2000/svg" width="400" height="398.898"><g fill-rule="evenodd"><path d="M112.974 1.939c0 1.559-.144 2.053-.599 2.053-.49 0-.599.684-.599 3.759 0 2.653-.146 3.808-.499 3.925-.345.115-.54 1.474-.635 4.425-.075 2.342-.299 4.258-.499 4.258-.199 0-.363 1.976-.363 4.391 0 3.638-.102 4.392-.598 4.392-.493 0-.599.709-.599 3.992 0 3.282-.107 3.992-.599 3.992-.496 0-.599.749-.599 4.348 0 3.497-.117 4.394-.599 4.579-.479.184-.598 1.065-.598 4.433 0 2.537-.159 4.205-.4 4.205-.238 0-.399 1.53-.399 3.792 0 3.105-.108 3.792-.599 3.792-.495 0-.598.75-.598 4.349 0 3.497-.118 4.393-.599 4.578-.479.184-.599 1.061-.599 4.391 0 3.331-.12 4.208-.599 4.392-.48.184-.599 1.065-.599 4.434 0 2.536-.158 4.204-.399 4.204-.239 0-.399 1.597-.399 3.992 0 3.282-.106 3.992-.599 3.992-.496 0-.599.754-.599 4.391s-.102 4.391-.598 4.391-.599.754-.599 4.391c0 3.638-.103 4.392-.599 4.392-.49 0-.599.687-.599 3.792 0 2.262-.161 3.792-.399 3.792-.242 0-.399 1.73-.399 4.392 0 3.637-.103 4.391-.599 4.391a.6.6 0 0 0-.599.599.6.6 0 0 1-.599.599.6.6 0 0 0-.598.598.6.6 0 0 1-.599.599c-.33 0-.599.193-.599.428 0 .553-1.016 1.568-1.568 1.568-.236 0-.428.27-.428.599a.6.6 0 0 1-.599.599.6.6 0 0 0-.599.599.6.6 0 0 1-.598.598.6.6 0 0 0-.599.599c0 .329-.193.599-.428.599-.553 0-1.568 1.016-1.568 1.568 0 .235-.383.428-.851.428-.825 0-3.54 2.472-3.54 3.222 0 .204-.194.371-.431.371-.561 0-3.961 3.399-3.961 3.96 0 .237-.269.431-.598.431-.33 0-.599.18-.599.399 0 .22-.27.399-.599.399a.601.601 0 0 0-.599.599.6.6 0 0 1-.599.599.6.6 0 0 0-.599.599c0 .329-.179.599-.399.599-.219 0-.399.269-.399.598a.6.6 0 0 1-.599.599c-.329 0-.599.18-.599.399 0 .22-.269.4-.598.4a.6.6 0 0 0-.599.598.6.6 0 0 1-.599.599.601.601 0 0 0-.599.599c0 .329-.179.599-.399.599-.219 0-.399.269-.399.599a.6.6 0 0 1-.599.598c-.329 0-.599.18-.599.4 0 .219-.269.399-.599.399a.6.6 0 0 0-.598.599.6.6 0 0 1-.599.598.601.601 0 0 0-.599.599c0 .373-.377.599-.998.599s-.998.226-.998.599a.6.6 0 0 1-.599.599.6.6 0 0 0-.599.598c0 .33-.185.599-.412.599-.517 0-2.781 2.287-2.781 2.808 0 .212-.27.386-.599.386a.6.6 0 0 0-.599.599c0 .329-.193.598-.43.598-.558 0-2.763 2.205-2.763 2.764 0 .237-.27.43-.599.43a.6.6 0 0 0-.599.599c0 .329-.193.599-.43.599-.559 0-2.764 2.205-2.764 2.763 0 .237-.269.43-.598.43a.6.6 0 0 0-.599.599c0 .329-.194.599-.43.599-.559 0-2.764 2.205-2.764 2.764 0 .236-.269.43-.599.43a.6.6 0 0 0-.598.598c0 .363-.371.599-.943.599-.538 0-1.262.427-1.691.998-.412.549-.976.998-1.254.998-.277 0-.504.27-.504.599a.6.6 0 0 1-.598.599.6.6 0 0 0-.599.599.6.6 0 0 1-.599.598c-.329 0-.599.193-.599.428 0 .553-1.015 1.568-1.568 1.568-.235 0-.428.27-.428.599a.6.6 0 0 1-.599.599.6.6 0 0 0-.598.599c0 .329-.27.599-.599.599a.6.6 0 0 0-.599.598c0 .33-.193.599-.428.599-.552 0-1.568 1.016-1.568 1.568 0 .236-.27.428-.599.428a.601.601 0 0 0-.599.599.6.6 0 0 1-.598.599.6.6 0 0 0-.599.599c0 .329-.193.598-.428.598-.553 0-1.568 1.016-1.568 1.569 0 .235-.27.427-.599.427a.601.601 0 0 0-.599.599.6.6 0 0 1-.599.599.6.6 0 0 0-.599.599c0 .337-.356.599-.815.599-.49 0-2.077 1.275-3.975 3.193-1.738 1.757-3.347 3.194-3.576 3.194-.229 0-.416.269-.416.599a.6.6 0 0 1-.599.598c-.329 0-.599.194-.599.43 0 .559-2.205 2.764-2.763 2.764-.237 0-.43.27-.43.599 0 .329-.27.599-.599.599-.329 0-.599.173-.599.385 0 .522-2.264 2.808-2.781 2.808-.227 0-.412.27-.412.599 0 .329-.27.599-.599.599a.6.6 0 0 0-.599.599.6.6 0 0 1-.599.598c-.329 0-.599.193-.599.428 0 .635-1.05 1.568-1.764 1.568-.805 0-3.028 2.32-3.021 3.153.015 1.726.493 2.436 1.638 2.436.757 0 1.151.205 1.151.599 0 .366.373.599.956.599.525 0 1.058.269 1.185.599.126.329.684.599 1.24.599.556 0 1.011.179 1.011.399 0 .219.539.399 1.197.399.799 0 1.198.2 1.198.599 0 .372.377.599.998.599s.998.226.998.598c0 .4.399.599 1.197.599.799 0 1.198.2 1.198.599 0 .432.444.599 1.597.599.878 0 1.597.179 1.597.399 0 .219.449.399.998.399.621 0 .998.226.998.599 0 .399.399.599 1.197.599.799 0 1.198.199 1.198.599 0 .372.377.598.998.598s.998.227.998.599c0 .394.394.599 1.155.599.658 0 1.253.257 1.384.599.127.329.585.599 1.018.599.433 0 .898.179 1.034.399.135.219.685.399 1.221.399.6 0 .974.23.974.599 0 .374.379.599 1.011.599.556 0 1.114.269 1.24.598.127.33.641.599 1.143.599.501 0 1.016.27 1.142.599.126.329.684.599 1.24.599.556 0 1.011.179 1.011.399 0 .22.718.399 1.597.399 1.153 0 1.596.167 1.596.599 0 .373.377.599.998.599s.998.226.998.599c0 .399.4.598 1.198.598.798 0 1.198.2 1.198.599 0 .373.377.599.998.599.548 0 .998.18.998.399 0 .22.539.399 1.197.399.799 0 1.198.2 1.198.599 0 .366.372.599.955.599.526 0 1.059.269 1.185.599.127.329.685.599 1.24.599.633 0 1.011.224 1.011.598 0 .369.374.599.974.599.536 0 1.086.18 1.222.399.135.22.685.4 1.221.4.6 0 .974.23.974.598 0 .375.379.599 1.011.599.556 0 1.114.27 1.24.599.15.39.771.599 1.784.599 1.115 0 1.554.169 1.554.599 0 .372.377.598.998.598.549 0 .998.18.998.4 0 .219.539.399 1.198.399.798 0 1.197.199 1.197.599 0 .372.377.598.998.598s.998.227.998.599c0 .399.399.599 1.198.599.798 0 1.197.2 1.197.599 0 .372.378.599.998.599.549 0 .998.165.998.367 0 .202.539.486 1.198.631.659.144 1.198.428 1.198.63s.43.368.955.368c.525 0 1.059.269 1.185.598.126.33.685.599 1.24.599.633 0 1.011.224 1.011.599 0 .43.439.599 1.554.599 1.013 0 1.634.208 1.784.599.126.329.684.598 1.24.598.556 0 1.011.18 1.011.4 0 .219.449.399.998.399.621 0 .998.226.998.599 0 .399.399.598 1.197.598.799 0 1.198.2 1.198.599 0 .366.372.599.955.599.526 0 1.059.27 1.185.599.127.329.685.599 1.241.599.555 0 1.01.179 1.01.399 0 .219.449.399.998.399.621 0 .998.226.998.599 0 .399.399.599 1.198.599.798 0 1.197.199 1.197.598 0 .366.373.599.956.599.525 0 1.058.27 1.185.599.126.329.684.599 1.24.599.556 0 1.011.18 1.011.399 0 .22.718.399 1.596.399 1.154 0 1.597.167 1.597.599 0 .399.399.599 1.198.599.798 0 1.197.2 1.197.599 0 .372.377.599.998.599s.998.226.998.598c0 .4.4.599 1.198.599.659 0 1.198.18 1.198.399 0 .22.365.4.811.4.446 0 .914.269 1.04.598.131.342.727.599 1.385.599.76 0 1.155.205 1.155.599a.6.6 0 0 0 .599.599.6.6 0 0 1 .598.599c0 .329.18.598.4.598.219 0 .399.635.399 1.41 0 .885.223 1.495.599 1.64.329.126.598.64.598 1.142 0 .502.27 1.016.599 1.142.33.127.599.685.599 1.241 0 .632.224 1.01.599 1.01.369 0 .599.375.599.975 0 .536.179 1.085.399 1.221.219.135.399.685.399 1.221 0 .6.23.974.599.974.399 0 .599.4.599 1.198 0 .798.199 1.198.599 1.198.372 0 .598.377.598.998s.227.998.599.998c.399 0 .599.399.599 1.197 0 .659.18 1.198.399 1.198.22 0 .399.449.399.998 0 .621.227.998.599.998.433 0 .599.443.599 1.597 0 1.153.166 1.596.599 1.596.399 0 .599.4.599 1.198 0 .798.199 1.198.598 1.198.33 0 .599.299.599.664 0 .897 1.271 3.727 1.674 3.727.177 0 .322.455.322 1.01 0 .556.27 1.114.599 1.241.329.126.599.659.599 1.185 0 .583.233.955.599.955.399 0 .598.399.598 1.198 0 .658.18 1.197.4 1.197.219 0 .399.365.399.811 0 .446.269.915.599 1.041.341.131.598.726.598 1.385 0 .76.205 1.154.599 1.154.373 0 .599.378.599.998 0 .621.226.999.599.999.432 0 .599.443.599 1.596 0 .879.165 1.597.367 1.597.202 0 .486.539.631 1.198.144.658.428 1.197.63 1.197s.368.43.368.956c0 .525.269 1.058.598 1.185.33.126.599.684.599 1.24 0 .632.224 1.011.599 1.011.399 0 .599.399.599 1.197 0 .799.199 1.198.599 1.198.372 0 .598.377.598.998 0 .549.18.998.4.998.219 0 .399.455.399 1.01 0 .556.269 1.114.599 1.241.329.126.598.659.598 1.185 0 .583.234.955.599.955.399 0 .599.399.599 1.198 0 .798.2 1.197.599 1.197.372 0 .599.377.599.998 0 .549.179.998.399.998.219 0 .399.635.399 1.41 0 .885.223 1.495.599 1.639.341.131.599.727.599 1.385 0 .761.204 1.155.598 1.155.375 0 .599.378.599 1.011 0 .555.27 1.113.599 1.24.329.126.599.66.599 1.185s.179.955.399.955c.22 0 .399.455.399 1.011 0 .556.27 1.114.599 1.24.329.126.599.66.599 1.185 0 .583.233.955.599.955.399 0 .598.4.598 1.198 0 .798.2 1.198.599 1.198.373 0 .599.377.599.998 0 .549.18.998.399.998.22 0 .399.454.399 1.01s.27 1.114.599 1.241c.371.142.599.749.599 1.596 0 .847.228 1.455.599 1.597.329.127.599.641.599 1.142 0 .502.269 1.016.598 1.143.33.126.599.669.599 1.207 0 .537.135 1.037.3 1.11.496.221 1.696 2.739 1.696 3.559 0 .421.27.766.599.766.399 0 .599.399.599 1.198 0 .798.199 1.197.599 1.197.372 0 .598.377.598.998 0 .549.18.998.4.998.219 0 .399.347.399.77 0 .423.269 1.039.599 1.369.329.329.598.971.598 1.425 0 .469.26.827.599.827.399 0 .599.4.599 1.198 0 .798.2 1.198.599 1.198.432 0 .599.443.599 1.596 0 1.154.166 1.597.598 1.597.34 0 .599.358.599.827 0 1.957 3.82 2.871 4.883 1.169.275-.439.725-.798 1.002-.798.276 0 .503-.27.503-.599a.6.6 0 0 1 .598-.599c.33 0 .599-.187.599-.415 0-.228.719-1.099 1.597-1.934.899-.855 1.597-1.895 1.597-2.379 0-.474.173-.861.385-.861.522 0 2.808-2.264 2.808-2.781 0-.227.27-.412.599-.412.329 0 .599-.27.599-.599a.6.6 0 0 1 .599-.599.6.6 0 0 0 .599-.599c0-.329.192-.598.427-.598.553 0 1.569-1.016 1.569-1.569 0-.235.269-.427.598-.427a.6.6 0 0 0 .599-.599.6.6 0 0 1 .599-.599c.329 0 .599-.27.599-.599 0-.329.192-.599.427-.599.553 0 1.569-1.015 1.569-1.568 0-.235.269-.428.599-.428a.6.6 0 0 0 .598-.598.6.6 0 0 1 .599-.599.6.6 0 0 0 .599-.599c0-.329.239-.599.531-.599.293 0 .772-.449 1.066-.998.294-.549.773-.998 1.065-.998.293 0 .532-.269.532-.599a.6.6 0 0 1 .598-.599c.333 0 .599-.354.599-.798 0-.44.719-1.497 1.597-2.349.878-.852 1.597-1.75 1.597-1.995 0-.246.269-.446.599-.446a.6.6 0 0 0 .598-.599c0-.329.194-.599.43-.599.559 0 2.764-2.205 2.764-2.764 0-.236.27-.43.599-.43a.6.6 0 0 0 .599-.598c0-.33.193-.599.43-.599.558 0 2.763-2.205 2.763-2.764 0-.236.27-.43.599-.43a.6.6 0 0 0 .599-.599c0-.329.193-.598.43-.598.558 0 2.763-2.205 2.763-2.764 0-.237.27-.43.599-.43a.6.6 0 0 0 .599-.599c0-.329.27-.599.599-.599a.6.6 0 0 0 .599-.598.6.6 0 0 1 .598-.599c.373 0 .599-.377.599-.998 0-.549.18-.998.399-.998.22 0 .4-.27.4-.599 0-.329.204-.599.453-.599.249 0 .869-.449 1.378-.998.509-.549 1.113-.998 1.343-.998a.42.42 0 0 0 .419-.418c0-.23.449-.835.998-1.343.548-.509.998-1.129.998-1.378 0-.25.269-.454.598-.454.33 0 .599-.179.599-.399 0-.219.27-.399.599-.399.329 0 .599-.188.599-.418 0-.23.449-.835.998-1.343.549-.509.998-1.129.998-1.379 0-.249.194-.453.43-.453.561 0 3.961-3.399 3.961-3.96 0-.237.196-.431.435-.431.742 0 3.956-3.58 3.956-4.407 0-.43.27-.783.599-.783a.6.6 0 0 0 .599-.598.6.6 0 0 1 .599-.599.6.6 0 0 0 .598-.599c0-.329.27-.599.599-.599.33 0 .599-.186.599-.413 0-.516 2.287-2.781 2.808-2.781.212 0 .386-.269.386-.598a.6.6 0 0 1 .598-.599.6.6 0 0 0 .599-.599c0-.329.18-.599.399-.599.22 0 .4-.269.4-.599a.6.6 0 0 1 .598-.598c.33 0 .599-.18.599-.4 0-.219.27-.399.599-.399a.6.6 0 0 0 .599-.599.6.6 0 0 1 .599-.598.6.6 0 0 0 .598-.599c0-.329.18-.599.4-.599.219 0 .399-.269.399-.599 0-.329.204-.599.453-.599.249 0 .869-.449 1.378-.998.509-.548 1.113-.998 1.343-.998.23 0 .419-.269.419-.598 0-.33.179-.599.399-.599.219 0 .399-.27.399-.599 0-.329.18-.599.399-.599.693 0 1.996-1.563 1.996-2.395 0-.444.266-.798.599-.798.329 0 .599-.27.599-.599 0-.33.192-.599.428-.599.552 0 1.568-1.016 1.568-1.568 0-.236.269-.428.599-.428a.6.6 0 0 0 .598-.599c0-.482.623-.599 3.207-.599 2.481 0 3.258-.135 3.436-.598.181-.474 1.014-.599 3.979-.599 2.062 0 3.75-.154 3.75-.342 0-.188 1.925-.44 4.278-.56 2.563-.131 4.337-.394 4.425-.656.093-.281 1.646-.438 4.317-.438 3.339 0 4.216-.12 4.4-.599.182-.473 1.015-.599 3.98-.599 3.067 0 3.749-.109 3.749-.599 0-.495.75-.598 4.349-.598 3.497 0 4.393-.118 4.578-.599.184-.48 1.063-.599 4.411-.599 2.356 0 4.288-.174 4.427-.399.136-.22 1.858-.399 3.828-.399 2.816 0 3.631-.129 3.812-.599.185-.482 1.081-.599 4.578-.599 3.599 0 4.349-.103 4.349-.599s.754-.599 4.391-.599 4.391-.102 4.391-.598c0-.491.688-.599 3.793-.599 2.262 0 3.792-.161 3.792-.399 0-.242 1.716-.4 4.349-.4 3.497 0 4.393-.117 4.578-.598.184-.48 1.06-.599 4.391-.599s4.207-.12 4.391-.599c.182-.474 1.021-.599 4.035-.599 3.116 0 3.805-.108 3.805-.599 0-.496.754-.598 4.391-.598 2.661 0 4.391-.158 4.391-.4 0-.236 1.464-.399 3.593-.399H400v-1.564c0-1.95-.323-2.827-1.041-2.827-.351 0-.556-.44-.556-1.198 0-.798-.199-1.197-.599-1.197-.372 0-.598-.377-.598-.998s-.227-.998-.599-.998c-.399 0-.599-.399-.599-1.198 0-.659-.16-1.197-.356-1.197-.196 0-.469-.45-.606-.998-.138-.549-.427-.999-.642-.999-.216 0-.392-.454-.392-1.01s-.269-1.114-.599-1.24c-.329-.127-.599-.48-.599-.786 0-.306-.269-.556-.598-.556-.373 0-.599-.377-.599-.998 0-.549-.18-.998-.399-.998-.22 0-.4-.347-.4-.77 0-.424-.269-1.04-.598-1.369-.33-.329-.599-.971-.599-1.426 0-.469-.259-.827-.599-.827-.375 0-.599-.378-.599-1.01 0-.556-.269-1.114-.599-1.24-.329-.127-.598-.66-.598-1.185 0-.583-.234-.956-.599-.956a.6.6 0 0 1-.599-.599c0-.329-.18-.598-.399-.598-.22 0-.399-.455-.399-1.011 0-.556-.27-1.114-.599-1.24-.33-.127-.599-.66-.599-1.185 0-.583-.233-.956-.599-.956-.399 0-.599-.399-.599-1.197 0-.799-.199-1.198-.598-1.198-.373 0-.599-.377-.599-.998 0-.549-.18-.998-.399-.998-.22 0-.4-.455-.4-1.01 0-.556-.269-1.114-.598-1.241-.33-.126-.599-.48-.599-.786 0-.305-.27-.556-.599-.556-.373 0-.599-.377-.599-.998s-.226-.998-.599-.998c-.399 0-.598-.399-.598-1.197 0-.659-.18-1.198-.4-1.198-.219 0-.399-.449-.399-.998 0-.621-.226-.998-.599-.998-.374 0-.598-.378-.598-1.01 0-.556-.27-1.114-.599-1.241-.33-.126-.599-.659-.599-1.185 0-.583-.233-.955-.599-.955a.601.601 0 0 1-.599-.599c0-.329-.179-.599-.399-.599-.219 0-.399-.449-.399-.998 0-.621-.226-.998-.599-.998-.399 0-.599-.399-.599-1.197 0-.799-.199-1.198-.599-1.198-.374 0-.598-.378-.598-1.01 0-.556-.27-1.114-.599-1.241-.329-.126-.599-.659-.599-1.185 0-.525-.16-.955-.356-.955-.196 0-.468-.449-.606-.998-.138-.549-.427-.998-.642-.998-.216 0-.392-.455-.392-1.011 0-.555-.269-1.114-.599-1.24-.329-.126-.599-.48-.599-.786 0-.306-.269-.556-.598-.556-.373 0-.599-.377-.599-.998 0-.549-.18-.998-.399-.998-.22 0-.4-.346-.4-.77 0-.423-.269-1.039-.598-1.369-.33-.329-.599-.97-.599-1.425 0-.469-.259-.827-.599-.827-.399 0-.599-.399-.599-1.198 0-.798-.199-1.197-.599-1.197-.372 0-.598-.377-.598-.998s-.227-.998-.599-.998a.6.6 0 0 1-.599-.599c0-.33-.18-.599-.399-.599-.22 0-.399-.539-.399-1.198 0-.798-.2-1.197-.599-1.197-.373 0-.599-.377-.599-.998s-.226-.998-.599-.998c-.399 0-.599-.399-.599-1.198 0-.798-.199-1.197-.598-1.197-.373 0-.599-.377-.599-.998 0-.549-.18-.998-.399-.998-.22 0-.4-.455-.4-1.011 0-.556-.269-1.114-.598-1.24-.33-.127-.599-.48-.599-.786 0-.306-.27-.556-.599-.556-.373 0-.599-.377-.599-.998s-.226-.998-.599-.998c-.399 0-.598-.399-.598-1.198 0-.659-.18-1.197-.4-1.197-.219 0-.399-.365-.399-.811 0-.446-.269-.915-.599-1.041-.329-.126-.598-.665-.598-1.198 0-.532-.27-1.071-.599-1.197-.33-.127-.599-.66-.599-1.185 0-.583-.233-.956-.599-.956a.6.6 0 0 1-.599-.598c0-.33-.179-.599-.399-.599-.219 0-.399-.455-.399-1.011 0-.556-.269-1.114-.599-1.24-.329-.126-.599-.66-.599-1.185 0-.583-.233-.955-.598-.955-.375 0-.599-.379-.599-1.011 0-.556-.27-1.114-.599-1.24-.329-.127-.599-.645-.599-1.152 0-.507-.135-.982-.299-1.055-.165-.073-.642-.807-1.061-1.63-.419-.824-1.003-1.497-1.298-1.497-.827 0-.767-7.81.063-8.129.455-.174.599-.913.599-3.065 0-1.988.179-3.014.599-3.434.398-.398.599-1.394.599-2.966 0-1.311.178-2.366.399-2.366.228 0 .399-1.198.399-2.795 0-2.218.124-2.794.599-2.794.485 0 .599-.643.599-3.393s.113-3.394.599-3.394c.467 0 .601-.549.611-2.495.008-1.558.233-2.786.599-3.27.382-.505.586-1.721.586-3.493 0-1.546.172-2.718.399-2.718.228 0 .399-1.197.399-2.794 0-2.218.124-2.795.599-2.795s.599-.576.599-2.794.124-2.794.599-2.794c.481 0 .599-.617.599-3.151 0-2.433.136-3.204.598-3.381.448-.172.599-.888.599-2.837 0-1.472.174-2.607.399-2.607.229 0 .4-1.198.4-2.795 0-2.218.123-2.794.598-2.794.482 0 .599-.616.599-3.151 0-2.433.137-3.203.599-3.381.446-.171.599-.883.599-2.794 0-1.912.152-2.623.599-2.795.447-.171.598-.887.598-2.837 0-1.472.174-2.607.4-2.607.234 0 .399-1.397.399-3.393 0-2.75.113-3.394.599-3.394.469 0 .598-.549.598-2.552 0-1.9.153-2.61.599-2.781.447-.172.599-.883.599-2.795 0-1.911.153-2.623.599-2.794.463-.178.599-.955.599-3.436 0-1.872.166-3.206.399-3.206.228 0 .399-1.198.399-2.795 0-2.218.124-2.794.599-2.794.471 0 .599-.556.599-2.608 0-1.949.151-2.665.598-2.837.474-.181.599-1.014.599-3.979v-3.75h-1.409c-.885 0-1.496.223-1.64.599-.174.452-.904.599-2.981.599-2.18 0-2.752.124-2.752.599s-.577.598-2.795.598c-2.217 0-2.794.124-2.794.599 0 .483-.621.599-3.194.599-1.863 0-3.193.166-3.193.399 0 .226-1.135.399-2.608.399-1.949 0-2.665.151-2.837.599-.173.452-.903.599-2.981.599-2.18 0-2.752.124-2.752.599 0 .481-.616.599-3.151.599-2.432 0-3.203.136-3.38.598-.172.448-.888.599-2.838.599-1.472 0-2.607.174-2.607.399 0 .231-1.255.4-2.965.4-2.104 0-3.14.174-3.565.598-.401.402-1.401.599-3.035.599-1.797 0-2.496.157-2.666.599-.17.444-.877.599-2.739.599-1.862 0-2.569.154-2.739.599-.178.463-.954.598-3.436.598-1.763 0-3.206.155-3.206.345 0 .189-1.207.441-2.682.56-1.475.118-2.747.412-2.828.653-.085.258-1.206.438-2.72.438-1.919 0-2.632.153-2.804.599-.177.462-.948.599-3.38.599-2.535 0-3.151.117-3.151.599 0 .475-.577.599-2.795.599-2.217 0-2.794.123-2.794.598 0 .476-.577.599-2.794.599-1.597 0-2.795.171-2.795.399 0 .231-1.268.4-3.006.4-2.305 0-3.061.14-3.237.598-.173.453-.903.599-2.981.599-2.18 0-2.752.125-2.752.599 0 .475-.576.599-2.794.599s-2.795.123-2.795.599c0 .482-.618.598-3.17.598-1.743 0-3.281.18-3.416.4-.136.219-1.404.399-2.818.399-2.02 0-2.572.128-2.572.599 0 .465-.532.598-2.395.598s-2.395-.133-2.395-.598c0-.373-.377-.599-.998-.599-.549 0-.998-.18-.998-.399 0-.22-.539-.4-1.198-.4-.798 0-1.197-.199-1.197-.598 0-.373-.377-.599-.998-.599s-.998-.226-.998-.599c0-.399-.4-.599-1.198-.599-.798 0-1.198-.199-1.198-.599 0-.372-.377-.598-.998-.598-.548 0-.998-.18-.998-.4 0-.219-.269-.399-.598-.399a.6.6 0 0 1-.599-.599c0-.365-.372-.598-.955-.598-.526 0-1.059-.27-1.185-.599-.127-.33-.685-.599-1.241-.599-.632 0-1.01-.224-1.01-.599 0-.365-.373-.599-.956-.599-.525 0-1.058-.269-1.185-.598-.126-.33-.684-.599-1.24-.599-.556 0-1.011-.18-1.011-.399 0-.22-.449-.4-.998-.4-.621 0-.998-.226-.998-.598 0-.33-.25-.599-.556-.599-.306 0-.659-.27-.786-.599-.126-.329-.665-.599-1.197-.599s-1.071-.269-1.198-.599c-.126-.329-.594-.598-1.04-.598-.446 0-.811-.18-.811-.4 0-.219-.539-.399-1.198-.399-.798 0-1.198-.199-1.198-.599 0-.372-.377-.598-.998-.598s-.998-.227-.998-.599c0-.399-.399-.599-1.197-.599-.799 0-1.198-.2-1.198-.599a.6.6 0 0 0-.599-.599c-.329 0-.598-.179-.598-.399 0-.219-.45-.399-.998-.399-.621 0-.998-.226-.998-.599 0-.399-.4-.599-1.198-.599-.798 0-1.198-.199-1.198-.598 0-.373-.377-.599-.998-.599s-.998-.226-.998-.599c0-.399-.399-.599-1.197-.599-.659 0-1.198-.179-1.198-.399 0-.22-.449-.399-.998-.399-.621 0-.998-.226-.998-.599a.6.6 0 0 0-.599-.599.6.6 0 0 1-.598-.599c0-.374-.379-.598-1.011-.598-.556 0-1.114-.27-1.24-.599-.127-.33-.66-.599-1.185-.599-.526 0-.956-.18-.956-.399 0-.22-.454-.399-1.01-.399s-1.114-.27-1.241-.599c-.126-.33-.659-.599-1.185-.599-.583 0-.955-.233-.955-.599 0-.399-.399-.599-1.198-.599-.658 0-1.197-.192-1.197-.427 0-.67-1-1.504-2.148-1.792-.575-.144-1.046-.423-1.046-.618 0-.196-.43-.356-.955-.356-.525 0-1.059-.27-1.185-.599-.126-.329-.685-.599-1.24-.599-.633 0-1.011-.224-1.011-.599 0-.365-.372-.599-.955-.599-.526 0-1.059-.269-1.185-.598-.127-.33-.685-.599-1.241-.599-.555 0-1.01-.18-1.01-.399 0-.22-.27-.4-.599-.4a.6.6 0 0 1-.599-.598c0-.373-.377-.599-.998-.599s-.998-.226-.998-.599c0-.399-.399-.599-1.197-.599-.799 0-1.198-.199-1.198-.599 0-.372-.377-.598-.998-.598-.549 0-.998-.18-.998-.4 0-.219-.539-.399-1.198-.399-.798 0-1.197-.199-1.197-.599 0-.372-.377-.598-.998-.598s-.998-.227-.998-.599c0-.329-.25-.599-.556-.599-.306 0-.66-.269-.786-.599-.127-.329-.685-.599-1.24-.599-.556 0-1.011-.179-1.011-.399 0-.219-.449-.399-.998-.399-.621 0-.998-.226-.998-.599 0-.399-.399-.599-1.198-.599-.798 0-1.197-.199-1.197-.598 0-.373-.377-.599-.998-.599s-.998-.226-.998-.599c0-.394-.395-.599-1.155-.599-.658 0-1.254-.257-1.385-.599-.126-.329-.595-.598-1.041-.598-.446 0-.81-.18-.81-.4 0-.219-.27-.399-.599-.399a.6.6 0 0 1-.599-.599c0-.374-.378-.598-1.011-.598-.555 0-1.114-.27-1.24-.599-.126-.33-.66-.599-1.185-.599s-.955-.145-.955-.322c0-.403-2.83-1.674-3.727-1.674-.366 0-.665-.269-.665-.599 0-.399-.399-.599-1.197-.599-.659 0-1.198-.187-1.198-.415 0-1.108-1.54-1.986-3.92-2.235l-2.467-.258v2.053m13.958 16.612c.372.336.808.611.97.611.162 0 .867.422 1.566.938.699.516 2.079 1.333 3.067 1.816.988.483 2.066 1.036 2.395 1.229.329.192.868.455 1.198.583.329.128 1.137.577 1.796.998.659.42 1.456.778 1.771.794.315.016.944.372 1.397.791.453.419 2.308 1.516 4.121 2.439 1.813.922 3.396 1.836 3.516 2.032.121.196.547.356.946.356.4 0 .95.269 1.223.599.274.329.803.598 1.177.598s1.102.449 1.618.998c.515.549 1.255.998 1.642.998.388 0 .81.169.937.374.127.206 1.205.835 2.396 1.398 1.19.564 2.275 1.204 2.41 1.423.136.219.573.398.973.398.399 0 .949.27 1.222.599.274.329.813.599 1.198.599s.946.295 1.245.656c.299.36 1.983 1.357 3.741 2.214 1.759.858 3.467 1.717 3.796 1.911.33.193.869.461 1.198.595.769.313 1.906.996 3.402 2.043.654.458 2.536 1.51 4.183 2.337 4.83 2.428 6.929 3.564 8.193 4.436.654.451 2.935 1.674 5.071 2.718 2.135 1.044 3.987 2.067 4.115 2.274.128.207.525.377.882.377s1.02.333 1.474.74c.453.407 1.632 1.148 2.62 1.647a66.71 66.71 0 0 1 2.395 1.256c.33.193.986.519 1.459.724.472.206.977.565 1.121.798.144.233.589.423.988.423s.95.27 1.223.599c.273.33.803.599 1.177.599s1.102.449 1.617.998c.516.549 1.137.998 1.38.998.244 0 1.605.635 3.025 1.41 5.188 2.835 5.483 2.981 6.016 2.981.249 0 1.081.553 1.851 1.229 1.396 1.225 4.498 1.425 5.892.378.219-.165 1.556-.415 2.971-.556 1.414-.141 3.121-.423 3.792-.627 1.136-.346 6.403-1.341 13.995-2.644a210.75 210.75 0 0 0 6.188-1.173c3.61-.754 4.137-.852 9.98-1.869a447.75 447.75 0 0 0 7.585-1.388c1.647-.323 3.96-.743 5.14-.933 1.18-.19 2.617-.523 3.194-.739.576-.217 2.017-.494 3.202-.615s4.06-.586 6.387-1.031c2.328-.446 6.658-1.27 9.622-1.83 2.964-.56 6.647-1.284 8.183-1.609 1.537-.325 3.942-.761 5.343-.968 3.839-.568 13.257-2.347 14.618-2.762.658-.2 2.365-.488 3.792-.64 1.427-.152 2.774-.419 2.994-.595.22-.176 1.843-.445 3.607-.599 4.619-.401 4.593-.477 2.797 8.193a275.224 275.224 0 0 0-1.189 6.187c-.312 1.757-1.041 5.709-1.619 8.783a869.416 869.416 0 0 0-1.608 8.782 294.533 294.533 0 0 1-1.161 6.188c-.331 1.647-.971 5.239-1.421 7.984-.449 2.745-.917 5.439-1.038 5.988-.98 4.431-1.478 6.954-1.813 9.182-.215 1.427-.551 3.133-.747 3.792-.197.659-.643 3.084-.992 5.389-.349 2.306-.802 4.731-1.006 5.39-.204.658-.481 2.275-.615 3.592-.134 1.318-.4 2.755-.592 3.194-.191.439-.535 1.966-.764 3.393a242.952 242.952 0 0 1-1.199 6.587c-.431 2.196-.792 4.72-.802 5.609-.01.889-.185 1.787-.39 1.996-.205.208-.559 1.547-.787 2.974a140.5 140.5 0 0 1-1.043 5.589c-1.863 8.857-1.611 11.726 1.268 14.431.514.482.934 1.118.934 1.412 0 .485.311 1.21 1.253 2.919.181.329.793 1.538 1.36 2.687.567 1.148 1.199 2.192 1.405 2.319.205.127.374.548.374.936s.449 1.127.998 1.643c.548.516.998 1.243.998 1.617 0 .374.269.904.598 1.177.33.274.599.824.599 1.223 0 .4.175.834.389.966.213.132 1.121 1.74 2.016 3.574.896 1.833 1.979 3.65 2.406 4.037.428.387.778 1.024.778 1.416 0 .392.18.824.399.96.22.136.399.595.399 1.022 0 .426.162.774.361.774.198 0 .554.494.792 1.098.238.604.615 1.412.838 1.797.914 1.576 1.216 2.151 1.734 3.293.299.659.84 1.444 1.204 1.746.363.301.66.874.66 1.273 0 .4.191.844.424.988.233.144.592.649.797 1.122.206.472.541 1.129.745 1.458.205.329.473.868.598 1.197.124.33.384.869.577 1.198.194.329.761 1.407 1.26 2.395s1.179 2.112 1.511 2.498c.332.386.838 1.104 1.123 1.597.513.885.631 1.141 1.431 3.091.225.549.561 1.267.747 1.597.186.329.745 1.407 1.243 2.395.498.988 1.287 2.335 1.753 2.994.466.659.962 1.467 1.103 1.796.141.33.424.869.629 1.198.205.329.474.868.599 1.198.124.329.406.913.627 1.297.906 1.575 1.231 2.186 2.178 4.102.545 1.103 1.357 2.398 1.803 2.877.447.48.812 1.127.812 1.438 0 .312.27.791.599 1.064.329.273.599.824.599 1.223 0 .399.18.837.399.973.22.135.399.58.399.988 0 .408.141.801.313.875.448.191 2.082 3.077 2.082 3.679 0 .278.45.928.998 1.444.549.515.999 1.243.999 1.617 0 .374.269.904.598 1.177.33.273.599.824.599 1.223 0 .399.191.844.424.988.233.144.592.649.797 1.121.206.473.541 1.129.745 1.458.205.33.473.869.598 1.198.124.329.393.868.598 1.198.205.329.478.868.607 1.197.128.33.68 1.391 1.226 2.358 2.006 3.554 1.777 3.682-8.588 4.829-1.866.206-5.279.655-7.585.997-2.305.342-5.718.791-7.584.998-3.443.381-17.237 2.151-20.16 2.587-.878.13-3.393.421-5.589.644-2.195.224-4.351.564-4.79.756-.439.192-2.326.459-4.192.594-1.866.134-5.01.507-6.986.829-1.976.321-5.928.862-8.782 1.201-5.378.639-10.957 1.351-18.164 2.315-2.305.309-7.335.944-11.178 1.411-3.842.468-7.959 1.028-9.148 1.245-1.189.217-2.702.394-3.361.394-1.228 0-11.323 9.361-13.021 12.073-.377.602-4.847 5.332-9.933 10.509-5.086 5.178-9.247 9.626-9.247 9.886 0 .26-4.401 4.871-9.781 10.247-5.379 5.375-9.78 10.046-9.78 10.379 0 .332-4.491 5.093-9.98 10.579-5.489 5.485-9.98 10.211-9.98 10.5 0 .956-12.493 13.252-13.464 13.252-.67 0-1.132-.507-1.91-2.096-.565-1.152-1.178-2.365-1.363-2.694-.308-.548-.787-1.65-1.388-3.194a11.7 11.7 0 0 0-.635-1.297l-.802-1.398a19.34 19.34 0 0 1-.774-1.558c-.205-.472-.564-.977-.797-1.121-.233-.144-.424-.695-.424-1.224s-.35-1.641-.778-2.471a44.618 44.618 0 0 1-1.197-2.508c-.23-.549-.586-1.267-.79-1.597a8.34 8.34 0 0 1-.597-1.197 7.848 7.848 0 0 0-.607-1.198c-.209-.329-1.211-2.305-2.226-4.391a478.711 478.711 0 0 0-2.154-4.391l-.771-1.492c-.253-.491-.461-1.142-.461-1.448 0-.305-.269-.779-.599-1.052-.329-.274-.599-.775-.599-1.115 0-.542-1.84-4.807-2.792-6.47-.42-.734-2.594-5.163-2.94-5.988-.138-.329-.41-.868-.606-1.198-.195-.329-.577-1.137-.847-1.796-.271-.659-.653-1.467-.851-1.796-.197-.33-.553-1.093-.791-1.697-.238-.604-.594-1.098-.792-1.098-.199 0-.361-.337-.361-.749 0-.413-.269-.974-.598-1.247-.33-.273-.599-.872-.599-1.331 0-.698-2.402-6.19-3.608-8.25-.765-1.305-2.779-5.611-2.779-5.94 0-.192-.27-.573-.599-.846-.33-.274-.599-.812-.599-1.198 0-.385-.269-.924-.599-1.197-.329-.274-.599-.813-.599-1.198s-.269-.924-.598-1.198c-.33-.273-.599-.861-.599-1.306 0-.445-1.419-3.701-3.153-7.236-1.735-3.535-3.261-6.697-3.391-7.026-.131-.33-.418-.914-.639-1.298l-.804-1.397a12.573 12.573 0 0 1-.641-1.297c-.762-1.902-1.415-3.186-1.717-3.372-.189-.117-.462-.847-.608-1.623-.275-1.468-2.345-4.187-3.187-4.187-.266 0-2.963-1.258-5.992-2.795-3.029-1.536-5.917-2.794-6.417-2.794-.501 0-1.014-.269-1.141-.599-.126-.329-.572-.599-.991-.599-.419 0-.986-.269-1.259-.598-.274-.33-.747-.599-1.053-.599-.305 0-.867-.167-1.248-.37a13.253 13.253 0 0 0-1.292-.596 11.82 11.82 0 0 1-1.397-.691c-1.594-.928-2.014-1.147-2.994-1.562-.549-.232-3.316-1.579-6.148-2.993s-5.395-2.571-5.694-2.571c-.299 0-.856-.166-1.238-.37a14.59 14.59 0 0 0-1.292-.603c-.329-.128-1.137-.588-1.796-1.023-1.12-.738-1.4-.883-2.695-1.394a9.487 9.487 0 0 1-1.097-.553c-.33-.195-1.138-.577-1.797-.847s-1.467-.651-1.796-.846c-.33-.194-.958-.511-1.397-.704-.44-.193-2.659-1.27-4.933-2.394-2.273-1.124-4.452-2.044-4.841-2.044-.389 0-.931-.269-1.205-.599-.273-.329-.812-.599-1.197-.599s-.924-.269-1.198-.598c-.273-.33-.812-.599-1.197-.599-.386 0-.925-.27-1.198-.599-.273-.329-.702-.599-.952-.599s-3.326-1.435-6.837-3.189c-3.51-1.754-6.765-3.191-7.232-3.194-.467-.002-1.073-.274-1.346-.603-.274-.329-.824-.599-1.223-.599-.399 0-.834-.175-.966-.388-.211-.341-1.435-.975-3.4-1.762a9.363 9.363 0 0 1-1.198-.613 8.358 8.358 0 0 0-1.197-.599 8.3 8.3 0 0 1-1.198-.597c-1.735-1.077-12.269-6.023-12.825-6.022-.358.001-.874-.268-1.147-.598-.273-.329-.822-.598-1.219-.598-.91 0-1.312-1.199-.82-2.443.387-.978 7.857-8.53 8.695-8.789.257-.08 4.716-4.333 9.908-9.45 5.192-5.118 9.787-9.433 10.211-9.59.423-.157 5.134-4.637 10.467-9.957 5.334-5.319 9.961-9.672 10.283-9.672.322 0 4.985-4.415 10.362-9.813 5.378-5.397 10.074-9.933 10.437-10.08.362-.146 4.154-3.679 8.425-7.851l7.766-7.585.428-2.595c.235-1.427.631-4.84.88-7.584.249-2.745.606-5.529.793-6.188.187-.659.453-2.455.591-3.992.138-1.537.418-3.603.622-4.591.205-.988.662-4.222 1.016-7.186.678-5.664 1.817-14.768 2.773-22.155.312-2.415.828-6.457 1.147-8.982.318-2.525.864-6.567 1.213-8.982a288.77 288.77 0 0 0 1.029-7.984c.559-5.084 1.505-12.195 1.78-13.374.128-.549.401-2.704.608-4.79.207-2.086.739-6.397 1.182-9.581.444-3.184.811-6.606.816-7.605.004-.999.233-2.048.507-2.331.65-.67 4.149-.297 5.076.543" fill="#060708"/><path d="M122.444 20.259c-.296 3.29-1.03 8.574-1.706 12.276-.32 1.756-.582 4.002-.582 4.99-.001.988-.174 2.425-.386 3.194-.361 1.307-.7 4.083-1.597 13.067-.202 2.028-.555 4.363-.785 5.19-.23.827-.425 2.401-.434 3.499-.009 1.098-.277 3.074-.595 4.391-.318 1.318-.582 3.294-.587 4.391-.004 1.098-.203 2.699-.441 3.557-.239.859-.601 3.284-.805 5.39-.732 7.545-1.118 10.639-1.522 12.211-.225.878-.414 2.405-.42 3.394-.005.988-.275 3.054-.601 4.59-.326 1.537-.596 3.693-.601 4.791-.005 1.097-.187 2.636-.404 3.418-.382 1.373-.765 4.344-1.596 12.35-.216 2.086-.57 4.511-.786 5.389-.216.879-.398 2.46-.403 3.514-.005 1.055-.288 3.145-.63 4.644-.695 3.058.584 1.632-12.558 13.998-3.384 3.184-7.339 6.956-8.79 8.383a240.699 240.699 0 0 1-6.004 5.639 301.1 301.1 0 0 0-6.792 6.387c-6.399 6.244-12.587 12.121-14.163 13.453-.863.73-5.432 5.053-10.153 9.607-4.721 4.554-9.39 8.986-10.376 9.85-.986.864-1.992 1.751-2.236 1.97-4.638 4.174-15.73 15.281-15.722 15.744.005.343.769.964 1.696 1.38.928.416 3.753 1.736 6.278 2.933 2.524 1.198 6.117 2.893 7.984 3.767 1.866.874 3.662 1.756 3.992 1.959.329.204.868.478 1.197.61.966.386 5.001 2.279 10.779 5.057 10.347 4.975 14.582 6.981 16.167 7.657.879.374 1.867.846 2.196 1.049.329.203.868.47 1.197.594.33.125.869.394 1.198.599.329.205.868.484 1.198.62.994.409 5.477 2.505 11.177 5.227 2.964 1.415 6.018 2.853 6.787 3.196.768.343 1.666.769 1.996.946 2.929 1.577 10.683 5.149 11.178 5.149.219 0 .399.18.399.4 0 .219.337.399.749.399s.973.269 1.247.599c.273.329.696.598.94.598.456 0 1.762.6 11.036 5.068 8.165 3.935 8.782 4.265 8.782 4.702 0 .223 1.002 2.472 2.226 4.998a768.816 768.816 0 0 1 3.44 7.189 255.587 255.587 0 0 0 2.364 4.893c1.692 3.384 1.778 3.564 2.442 5.087.737 1.688 4.965 10.553 5.741 12.037.304.583.554 1.332.554 1.664 0 .332.134.663.299.736.165.074.634.852 1.042 1.73.408.878.903 1.867 1.1 2.196.197.329.46.868.584 1.197.124.33.394.869.599 1.198.205.329.478.868.606 1.198.128.329.376.958.55 1.397.174.439 1.435 3.134 2.803 5.988 4.235 8.836 4.393 9.181 4.393 9.637 0 .245.269.668.598.942.33.273.599.834.599 1.246 0 .412.168.75.373.75.204 0 .488.404.63.898.351 1.219 1.05 2.774 4.087 9.082 1.428 2.964 3.576 7.455 4.774 9.98 1.198 2.525 2.344 4.86 2.547 5.189.203.33.467.869.586 1.198.306.841 3.368 7.259 3.809 7.984.201.329.465.868.587 1.198 1.355 3.646 3.502 7.584 4.13 7.577.348-.004 1.39-.913 2.315-2.02.926-1.107 5.621-6.089 10.433-11.071 4.813-4.981 9.265-9.685 9.894-10.453 1.079-1.316 6.653-7.166 13.286-13.943a221.81 221.81 0 0 0 5.807-6.218c2.554-2.866 8.964-9.618 14.387-15.156a203.017 203.017 0 0 0 4.166-4.419c1.942-2.131 4.821-5.166 18.441-19.443l3.844-4.03 4.14-.524c2.277-.289 5.846-.71 7.932-.936 2.086-.227 4.313-.59 4.95-.807.636-.216 2.163-.4 3.393-.408 1.23-.007 3.403-.271 4.831-.584 1.427-.314 3.57-.578 4.762-.585 1.192-.008 2.719-.184 3.393-.392 1.167-.359 4.139-.741 12.603-1.62 2.086-.217 4.313-.574 4.95-.795.636-.22 2.074-.404 3.193-.407 1.12-.004 3.115-.267 4.432-.585 1.317-.318 3.425-.584 4.685-.592 1.259-.008 3.056-.189 3.992-.402 1.571-.358 3.504-.612 12.015-1.579 1.72-.195 4.235-.542 5.589-.769 3.697-.622 8.861-1.322 12.441-1.686 1.757-.179 5.26-.609 7.785-.957 2.525-.347 6.166-.795 8.091-.995 4.575-.475 5.083-.656 5.083-1.813 0-.522-.167-1.051-.372-1.177-.204-.127-.894-1.26-1.534-2.519-1.906-3.753-4.95-9.446-5.28-9.874-.29-.377-2.748-4.919-5.292-9.78-.632-1.208-1.494-2.735-1.916-3.394-.422-.658-.859-1.422-.971-1.696l-.409-.998c-.113-.275-.739-1.397-1.392-2.495a94.777 94.777 0 0 1-2.221-3.992c-1.446-2.794-2.895-5.455-5.048-9.271-1.019-1.805-1.968-3.646-2.109-4.092-.141-.445-.424-.809-.629-.809-.205 0-.372-.349-.372-.775 0-.426-.18-.885-.399-1.021-.219-.135-.863-1.179-1.432-2.319-.568-1.14-1.82-3.51-2.783-5.266a472.455 472.455 0 0 1-2.17-3.992 338.924 338.924 0 0 0-2.195-3.992 248.397 248.397 0 0 1-3.207-5.988c-.787-1.537-1.779-3.334-2.204-3.992-.424-.659-.846-1.377-.937-1.597l-.409-.998c-.134-.329-.777-1.497-1.43-2.595a90.297 90.297 0 0 1-2.215-3.992c-1.178-2.286-3.036-5.714-4.976-9.181-.737-1.318-1.607-2.935-1.934-3.593-.326-.659-.697-1.288-.824-1.398-1.6-1.385-2.065-5.72-1.029-9.58.324-1.208.591-2.722.594-3.365.003-.643.172-1.721.376-2.395.205-.675.571-2.394.813-3.821l.78-4.591c.502-2.947 1.22-6.545 1.714-8.583.24-.988.56-2.784.711-3.992.152-1.207.396-2.465.542-2.794.146-.33.451-1.857.677-3.393.769-5.236 1.654-10.041 2.461-13.374.24-.988.547-2.784.683-3.992.137-1.207.385-2.413.552-2.678.291-.462.68-2.75 1.464-8.598.198-1.481.503-2.918.678-3.193.174-.276.439-1.579.588-2.896.149-1.317.476-3.293.726-4.391 1.229-5.398 1.373-6.174 2.37-12.775.199-1.317.548-3.203.777-4.191a146.996 146.996 0 0 0 1.63-8.184c.326-1.979.917-5.122 1.613-8.583 1.164-5.784.942-7.123-1.053-6.358-.622.238-2.299.592-3.726.785-5.155.697-8.15 1.243-8.833 1.608-.382.205-1.262.372-1.954.372-.691 0-2.365.259-3.718.575-2.969.693-6.544 1.4-9.248 1.829-1.097.174-3.522.613-5.389.975-1.866.362-4.561.824-5.988 1.027-1.427.203-2.954.543-3.393.757-.439.213-1.697.467-2.794.564-1.098.096-2.715.367-3.593.601-.878.233-3.393.715-5.589 1.071-2.196.355-4.544.812-5.218 1.015-.674.203-1.932.377-2.794.386-.863.01-2.287.277-3.166.593-.878.317-2.152.578-2.83.581-.679.004-2.116.274-3.194.601-1.078.327-2.532.596-3.231.599-.699.002-1.777.204-2.395.449-.618.245-2.202.598-3.519.784-7.011.991-8.345 1.224-9.006 1.578-.397.213-1.334.387-2.082.387-.748 0-2.242.267-3.32.594-1.078.327-2.532.597-3.231.599-.699.002-1.777.205-2.395.45-.618.244-2.202.596-3.519.78-5.213.731-7.969 1.24-8.633 1.596-.846.452-4.341.498-4.341.056 0-.174-.584-.597-1.298-.939a73.598 73.598 0 0 1-3.094-1.624c-.988-.55-3.053-1.683-4.59-2.517a380.37 380.37 0 0 1-4.192-2.306 312.54 312.54 0 0 0-3.952-2.174c-1.405-.762-3.112-1.724-3.792-2.138-.681-.415-1.418-.828-1.637-.918-.22-.091-.669-.274-.998-.406-.33-.133-1.156-.581-1.837-.995-1.866-1.137-9.008-5.009-14.53-7.879-1.208-.628-2.286-1.255-2.396-1.394-.191-.243-4.345-2.403-5.588-2.907-.33-.133-1.138-.587-1.797-1.008-.659-.421-2.5-1.443-4.092-2.272-1.592-.829-2.894-1.65-2.894-1.825 0-.175-.337-.318-.749-.318-.413 0-.974-.27-1.247-.599-.273-.329-.819-.599-1.213-.599-.394 0-.776-.143-.849-.318-.14-.334-1.842-1.307-5.523-3.158-1.207-.607-2.285-1.218-2.395-1.358-.11-.139-1.042-.635-2.072-1.102-1.029-.466-1.983-1.028-2.119-1.248-.136-.221-.574-.401-.973-.401-.4 0-.93-.246-1.18-.546-.25-.301-1.574-1.124-2.943-1.829-3.476-1.789-4.288-2.257-4.798-2.768-.245-.245-.747-.445-1.116-.445-.368 0-.893-.27-1.166-.599-.274-.33-.775-.599-1.115-.599-.341 0-.902-.253-1.249-.562-.619-.552-4.678-2.777-9.413-5.159-1.317-.663-2.485-1.313-2.594-1.445-.28-.334-4.397-2.415-4.78-2.415-.173 0-.407 1.033-.521 2.295m151.183 127.436 1.024.389v22.375h4.941c5.344 0 6.153.297 5.708 2.094a265.43 265.43 0 0 0-.85 3.695c-.866 3.861-1.343 4.191-6.051 4.191h-3.748v18.514c0 16.735-.064 18.567-.66 19.062-.714.592-7.721.795-9.021.261-.658-.27-.699-2.287-.699-34.403 0-38.471-.34-34.961 3.46-35.7 1.281-.249 2.688-.525 3.127-.614 1.387-.28 1.719-.263 2.769.136m-136.135 4.244c.803.308.937 8.075.153 8.859-.352.352-3.741.479-12.761.479-11.733 0-12.299.035-12.694.773-.345.644-.638 13.819-.314 14.077.055.044 3.873.179 8.483.3l8.384.22-.039 2.195c-.036 2.094-.889 6.103-1.512 7.111-.208.337-2.304.474-7.223.474-3.811 0-7.214.109-7.561.242-.554.213-.632 1.536-.632 10.736 0 9.201.078 10.523.632 10.736.347.133 5.993.242 12.546.242 10.3 0 12 .085 12.542.628.719.718.909 7.89.237 8.953-.466.739-32.603 1.135-34.47.426l-1.067-.406v-32.878c0-18.082.119-32.997.266-33.143.332-.333 34.166-.356 35.03-.024m53.819 19.809c.785.599 1.849 1.767 2.364 2.595l.936 1.505.118 20.559c.102 17.577.034 20.675-.467 21.357-.674.918-8.174 1.219-9.029.364-.301-.302-.428-5.68-.411-17.46.029-21.071.254-20.229-5.407-20.229-2.351 0-2.204-1.266-2.178 18.742.029 21.535.531 19.735-5.451 19.519-5.375-.195-4.92 1.572-4.92-19.099 0-20.082.262-18.737-3.71-19.056-4.228-.34-3.9-1.949-3.862 18.971.023 12.787-.098 18.294-.409 18.605-.721.721-8.724.584-9.193-.157-.607-.961-.512-46.426.099-47.036.377-.377 5.061-.465 20.291-.38l19.801.111 1.428 1.089m32.208-.413c3.878 2.232 4.026 3.083 4.024 23.074-.003 23.732-.105 23.942-11.775 24.274l-5.988.17.124 10.446c.077 6.537-.031 10.852-.29 11.531l-.413 1.086h-4.321c-2.829 0-4.487-.165-4.8-.479-.694-.694-.694-69.805 0-70.499.993-.993 21.63-.644 23.439.397m32.768-.03c4.132 2.492 3.992 1.59 3.992 25.772v20.907l-1.097.423c-.706.272-4.667.373-11.078.282l-9.98-.141-1.597-1.049c-3.723-2.447-4.192-3.956-4.192-13.507 0-12.418 1.412-14.336 10.779-14.649 6.787-.227 6.786-.227 6.786-4.401v-3.346l-1.384-.578c-.936-.391-2.868-.579-5.96-.579-6.283 0-6.296-.013-5-5.219 1.3-5.222.383-4.761 9.464-4.759 7.3.001 7.972.062 9.267.844m54.857.498c2.971 2.267 3.024 2.499 3.026 13.047l.002 9.401-1.095 1.688c-1.81 2.791-3.624 3.425-10.482 3.662l-5.789.199v3.48c0 4.993-.195 4.873 8.201 5.03l6.776.126.583 1.127c.518 1.001.954 2.85 1.673 7.097.343 2.028-.58 2.186-11.843 2.029-16.173-.225-15.569.718-15.569-24.331 0-20.663-.031-20.468 3.554-22.743l1.835-1.165 8.815.105 8.814.104 1.499 1.144m-100.959 9.027c-.325.526-.338 26.616-.014 27.141.493.797 5.313.497 6.196-.386.799-.798 1.276-22.731.554-25.424-.381-1.418-5.997-2.527-6.736-1.331m88.144.011c-1.378.555-1.765 1.758-1.639 5.092l.116 3.089 2.905.117c3.503.142 4.12-.297 4.391-3.122.454-4.723-1.825-6.766-5.773-5.176m-54.8 19.633c-.653.701-.814 1.409-.814 3.564 0 3.542.858 4.345 4.644 4.345h2.541v-8.782h-2.779c-2.344 0-2.906.136-3.592.873" fill="#6cb4c3"/><path d="M269.082 148.764c-4.456.965-4.012-2.918-4.012 35.123v33.263l.899.226c.495.124 2.336.173 4.092.108l3.192-.119.2-18.495c.233-21.616-.295-19.628 5.217-19.628 4.04 0 3.998.032 4.903-3.793 1.063-4.496 1.351-4.192-3.959-4.192-6.771 0-6.161 1.188-6.161-11.99v-11.163l-.898.051c-.494.029-2.057.303-3.473.609m-166.39 36.166.102 32.435 16.368.111c20.119.137 18.163.553 18.163-3.868 0-4.419 1.281-4.027-13.177-4.027-10.3 0-12-.085-12.543-.627-.817-.818-.955-22.039-.148-22.846.337-.337 2.585-.479 7.561-.479 4.472 0 7.177-.153 7.339-.415.743-1.203 1.776-6.902 1.345-7.421-.356-.429-2.111-.547-8.11-.547-5.422 0-7.796-.14-8.135-.48-.675-.675-.675-15.133 0-15.808.351-.351 3.661-.479 12.402-.479 14.387 0 13.466.301 13.466-4.405v-3.579H102.59l.102 32.435m47.674-13.406c-.652.651-.294 45.546.365 45.799.348.133 2.234.242 4.192.242h3.56l.006-18.463c.007-21.144-.273-19.669 3.727-19.637 5.954.047 5.883-.206 5.835 20.92-.021 9.006.074 16.556.211 16.778.381.616 7.782.525 7.802-.097.008-.275.002-8.329-.015-17.899-.033-18.399.051-19.324 1.788-19.76 1.795-.45 5.332.217 6.507 1.227l1.085.933.2 17.899.199 17.899 3.759.116c2.739.084 3.848-.024 4.086-.399.507-.799.418-37.83-.096-40.228-.488-2.274-1.79-4.056-3.637-4.978-1.295-.646-38.945-.981-39.574-.352m50.276.365c-.317.825-.317 67.772 0 68.597.317.827 8.125.953 8.164.133.013-.275.01-5.26-.006-11.078-.018-6.276.128-10.822.36-11.178.309-.474 1.747-.649 6.893-.842 3.576-.134 6.541-.269 6.588-.299 3.961-2.58 4.106-3.388 4.106-23.033 0-24.023.741-22.932-15.588-22.932-9.001 0-10.305.079-10.517.632m38.712-.133c-2.094 7.38-2 7.612 3.035 7.538 7.101-.105 8.709.926 8.709 5.589 0 4.31-.995 5.137-6.18 5.137-10.169 0-11.363 1.47-11.376 14.009-.015 13.454.158 13.603 15.558 13.443l10.181-.107.114-19.76c.133-23.271.133-23.274-3.545-25.516-1.657-1.01-16.22-1.303-16.496-.333m51.66.4c-3.483 2.37-3.57 2.913-3.57 22.255 0 24.152-.809 22.894 14.841 23.073 5.726.066 10.552-.024 10.725-.199.323-.33-.466-4.686-1.198-6.612l-.415-1.092h-5.453c-8.941 0-9.818-.535-10.063-6.137-.224-5.117-.326-5.041 6.716-5.041 10.008 0 11.175-1.419 11.175-13.582 0-12.708-.855-13.564-13.562-13.564-7.511 0-7.938.042-9.196.899m-75.445 7.607c2.633.898 2.793 1.73 2.794 14.561 0 13.006-.099 13.533-2.756 14.596-2.321.929-5.022.867-6.026-.138-.885-.884-1.26-25.879-.422-28.084.553-1.455 3.588-1.897 6.41-.935m88.116.582c2.175 1.405 2.177 7.542.003 9.064-1.209.848-6.78.856-7.48.012-.861-1.036-.347-7.615.674-8.636 1.51-1.51 4.816-1.724 6.803-.44m-53.359 18.471c1.053.564 1.175 9.107.144 10.138-1.47 1.47-7.217.329-8.1-1.609-1.06-2.326-.411-7.001 1.101-7.944 1.52-.947 5.537-1.29 6.855-.585" fill="#f5f9fa"/><path d="M121.856 18.008c-.274.283-.503 1.332-.507 2.331-.005.999-.372 4.421-.816 7.605-.443 3.184-.975 7.495-1.182 9.581-.207 2.086-.48 4.241-.608 4.79-.275 1.179-1.221 8.29-1.78 13.374a288.77 288.77 0 0 1-1.029 7.984 602.536 602.536 0 0 0-1.213 8.982c-.319 2.525-.835 6.567-1.147 8.982a2677.127 2677.127 0 0 0-2.773 22.155c-.354 2.964-.811 6.198-1.016 7.186-.204.988-.484 3.054-.622 4.591-.138 1.537-.404 3.333-.591 3.992-.187.659-.544 3.443-.793 6.188-.249 2.744-.645 6.157-.88 7.584l-.428 2.595-7.766 7.585c-4.271 4.172-8.063 7.705-8.425 7.851-.363.147-5.059 4.683-10.437 10.08-5.377 5.398-10.04 9.813-10.362 9.813-.322 0-4.949 4.353-10.283 9.672-5.333 5.32-10.044 9.8-10.467 9.957-.424.157-5.019 4.472-10.211 9.59-5.192 5.117-9.651 9.37-9.908 9.45-.838.259-8.308 7.811-8.695 8.789-.492 1.244-.09 2.443.82 2.443.397 0 .946.269 1.219.598.273.33.789.599 1.147.598.556-.001 11.09 4.945 12.825 6.022a8.3 8.3 0 0 0 1.198.597c.329.125.868.394 1.197.599.33.205.869.481 1.198.613 1.965.787 3.189 1.421 3.4 1.762.132.213.567.388.966.388s.949.27 1.223.599c.273.329.879.601 1.346.603.467.003 3.722 1.44 7.232 3.194 3.511 1.754 6.587 3.189 6.837 3.189s.679.27.952.599c.273.329.812.599 1.198.599.385 0 .924.269 1.197.599.274.329.813.598 1.198.598s.924.27 1.197.599c.274.33.816.599 1.205.599.389 0 2.568.92 4.841 2.044 2.274 1.124 4.493 2.201 4.933 2.394.439.193 1.067.51 1.397.704.329.195 1.137.576 1.796.846s1.467.652 1.797.847c.329.196.823.444 1.097.553 1.295.511 1.575.656 2.695 1.394.659.435 1.467.895 1.796 1.023.33.128.911.4 1.292.603.382.204.939.37 1.238.37.299 0 2.862 1.157 5.694 2.571 2.832 1.414 5.599 2.761 6.148 2.993.98.415 1.4.634 2.994 1.562a11.82 11.82 0 0 0 1.397.691c.329.124.911.392 1.292.596.381.203.943.37 1.248.37.306 0 .779.269 1.053.599.273.329.84.598 1.259.598.419 0 .865.27.991.599.127.33.64.599 1.141.599.5 0 3.388 1.258 6.417 2.794 3.029 1.537 5.726 2.795 5.992 2.795.842 0 2.912 2.719 3.187 4.187.146.776.419 1.506.608 1.623.302.186.955 1.47 1.717 3.372.132.329.42.913.641 1.297l.804 1.397c.221.384.508.968.639 1.298.13.329 1.656 3.491 3.391 7.026 1.734 3.535 3.153 6.791 3.153 7.236 0 .445.269 1.033.599 1.306.329.274.598.813.598 1.198s.27.924.599 1.198c.33.273.599.812.599 1.197 0 .386.269.924.599 1.198.329.273.599.654.599.846 0 .329 2.014 4.635 2.779 5.94 1.206 2.06 3.608 7.552 3.608 8.25 0 .459.269 1.058.599 1.331.329.273.598.834.598 1.247 0 .412.162.749.361.749.198 0 .554.494.792 1.098.238.604.594 1.367.791 1.697.198.329.58 1.137.851 1.796.27.659.652 1.467.847 1.796.196.33.468.869.606 1.198.346.825 2.52 5.254 2.94 5.988.952 1.663 2.792 5.928 2.792 6.47 0 .34.27.841.599 1.115.33.273.599.747.599 1.052 0 .306.208.957.461 1.448l.771 1.492c.17.329 1.139 2.305 2.154 4.391s2.017 4.062 2.226 4.391c.21.33.483.868.607 1.198.124.329.393.868.597 1.197.204.33.56 1.048.79 1.597.23.549.769 1.677 1.197 2.508.428.83.778 1.942.778 2.471 0 .529.191 1.08.424 1.224.233.144.592.649.797 1.121.206.473.554 1.174.774 1.558l.802 1.398c.221.384.507.968.635 1.297.601 1.544 1.08 2.646 1.388 3.194.185.329.798 1.542 1.363 2.694.778 1.589 1.24 2.096 1.91 2.096.971 0 13.464-12.296 13.464-13.252 0-.289 4.491-5.015 9.98-10.5 5.489-5.486 9.98-10.247 9.98-10.579 0-.333 4.401-5.004 9.78-10.379 5.38-5.376 9.781-9.987 9.781-10.247 0-.26 4.161-4.708 9.247-9.886 5.086-5.177 9.556-9.907 9.933-10.509 1.698-2.712 11.793-12.073 13.021-12.073.659 0 2.172-.177 3.361-.394 1.189-.217 5.306-.777 9.148-1.245 3.843-.467 8.873-1.102 11.178-1.411 7.207-.964 12.786-1.676 18.164-2.315 2.854-.339 6.806-.88 8.782-1.201 1.976-.322 5.12-.695 6.986-.829 1.866-.135 3.753-.402 4.192-.594.439-.192 2.595-.532 4.79-.756 2.196-.223 4.711-.514 5.589-.644 2.923-.436 16.717-2.206 20.16-2.587 1.866-.207 5.279-.656 7.584-.998 2.306-.342 5.719-.791 7.585-.997 10.365-1.147 10.594-1.275 8.588-4.829-.546-.967-1.098-2.028-1.226-2.358a8.867 8.867 0 0 0-.607-1.197 8.307 8.307 0 0 1-.598-1.198 8.411 8.411 0 0 0-.598-1.198 13.982 13.982 0 0 1-.745-1.458c-.205-.472-.564-.977-.797-1.121-.233-.144-.424-.589-.424-.988s-.269-.95-.599-1.223c-.329-.273-.598-.803-.598-1.177s-.45-1.102-.999-1.617c-.548-.516-.998-1.166-.998-1.444 0-.602-1.634-3.488-2.082-3.679-.172-.074-.313-.467-.313-.875s-.179-.853-.399-.988c-.219-.136-.399-.574-.399-.973s-.27-.95-.599-1.223c-.329-.273-.599-.752-.599-1.064 0-.311-.365-.958-.812-1.438-.446-.479-1.258-1.774-1.803-2.877-.947-1.916-1.272-2.527-2.178-4.102a10.9 10.9 0 0 1-.627-1.297 8.316 8.316 0 0 0-.599-1.198 10.69 10.69 0 0 1-.629-1.198c-.141-.329-.637-1.137-1.103-1.796-.466-.659-1.255-2.006-1.753-2.994a87.357 87.357 0 0 0-1.243-2.395 17.892 17.892 0 0 1-.747-1.597c-.8-1.95-.918-2.206-1.431-3.091a12.718 12.718 0 0 0-1.123-1.597c-.332-.386-1.012-1.51-1.511-2.498-.499-.988-1.066-2.066-1.26-2.395a9.424 9.424 0 0 1-.577-1.198 8.35 8.35 0 0 0-.598-1.197 14.083 14.083 0 0 1-.745-1.458c-.205-.473-.564-.978-.797-1.122-.233-.144-.424-.588-.424-.988 0-.399-.297-.972-.66-1.273-.364-.302-.905-1.087-1.204-1.746-.518-1.142-.82-1.717-1.734-3.293-.223-.385-.6-1.193-.838-1.797-.238-.604-.594-1.098-.792-1.098-.199 0-.361-.348-.361-.774 0-.427-.179-.886-.399-1.022-.219-.136-.399-.568-.399-.96s-.35-1.029-.778-1.416c-.427-.387-1.51-2.204-2.406-4.037-.895-1.834-1.803-3.442-2.016-3.574-.214-.132-.389-.566-.389-.966 0-.399-.269-.949-.599-1.223-.329-.273-.598-.803-.598-1.177s-.45-1.101-.998-1.617c-.549-.516-.998-1.255-.998-1.643 0-.388-.169-.809-.374-.936-.206-.127-.838-1.171-1.405-2.319a110.763 110.763 0 0 0-1.36-2.687c-.942-1.709-1.253-2.434-1.253-2.919 0-.294-.42-.93-.934-1.412-2.879-2.705-3.131-5.574-1.268-14.431a140.5 140.5 0 0 0 1.043-5.589c.228-1.427.582-2.766.787-2.974.205-.209.38-1.107.39-1.996.01-.889.371-3.413.802-5.609.431-2.196.97-5.16 1.199-6.587.229-1.427.573-2.954.764-3.393.192-.439.458-1.876.592-3.194.134-1.317.411-2.934.615-3.592.204-.659.657-3.084 1.006-5.39.349-2.305.795-4.73.992-5.389.196-.659.532-2.365.747-3.792.335-2.228.833-4.751 1.813-9.182.121-.549.589-3.243 1.038-5.988.45-2.745 1.09-6.337 1.421-7.984.332-1.647.854-4.431 1.161-6.188.306-1.756 1.03-5.708 1.608-8.782.578-3.074 1.307-7.026 1.619-8.783.313-1.756.848-4.54 1.189-6.187 1.796-8.67 1.822-8.594-2.797-8.193-1.764.154-3.387.423-3.607.599-.22.176-1.567.443-2.994.595-1.427.152-3.134.44-3.792.64-1.361.415-10.779 2.194-14.618 2.762-1.401.207-3.806.643-5.343.968a507.342 507.342 0 0 1-8.183 1.609c-2.964.56-7.294 1.384-9.622 1.83-2.327.445-5.202.91-6.387 1.031-1.185.121-2.626.398-3.202.615-.577.216-2.014.549-3.194.739-1.18.19-3.493.61-5.14.933-1.647.324-5.06.948-7.585 1.388-5.843 1.017-6.37 1.115-9.98 1.869a210.75 210.75 0 0 1-6.188 1.173c-7.592 1.303-12.859 2.298-13.995 2.644-.671.204-2.378.486-3.792.627-1.415.141-2.752.391-2.971.556-1.394 1.047-4.496.847-5.892-.378-.77-.676-1.602-1.229-1.851-1.229-.533 0-.828-.146-6.016-2.981-1.42-.775-2.781-1.41-3.025-1.41-.243 0-.864-.449-1.38-.998-.515-.549-1.243-.998-1.617-.998-.374 0-.904-.269-1.177-.599-.273-.329-.824-.599-1.223-.599-.399 0-.844-.19-.988-.423-.144-.233-.649-.592-1.121-.798a16.69 16.69 0 0 1-1.459-.724 66.71 66.71 0 0 0-2.395-1.256c-.988-.499-2.167-1.24-2.62-1.647-.454-.407-1.117-.74-1.474-.74s-.754-.17-.882-.377-1.98-1.23-4.115-2.274c-2.136-1.044-4.417-2.267-5.071-2.718-1.264-.872-3.363-2.008-8.193-4.436-1.647-.827-3.529-1.879-4.183-2.337-1.496-1.047-2.633-1.73-3.402-2.043a11.39 11.39 0 0 1-1.198-.595c-.329-.194-2.037-1.053-3.796-1.911-1.758-.857-3.442-1.854-3.741-2.214-.299-.361-.86-.656-1.245-.656-.385 0-.924-.27-1.198-.599-.273-.329-.823-.599-1.222-.599-.4 0-.837-.179-.973-.398-.135-.219-1.22-.859-2.41-1.423-1.191-.563-2.269-1.192-2.396-1.398-.127-.205-.549-.374-.937-.374-.387 0-1.127-.449-1.642-.998-.516-.549-1.244-.998-1.618-.998-.374 0-.903-.269-1.177-.598-.273-.33-.823-.599-1.223-.599-.399 0-.825-.16-.946-.356-.12-.196-1.703-1.11-3.516-2.032-1.813-.923-3.668-2.02-4.121-2.439-.453-.419-1.082-.775-1.397-.791-.315-.016-1.112-.374-1.771-.794-.659-.421-1.467-.87-1.796-.998-.33-.128-.869-.391-1.198-.583-.329-.193-1.407-.746-2.395-1.229-.988-.483-2.368-1.3-3.067-1.816-.699-.516-1.404-.938-1.566-.938-.162 0-.598-.275-.97-.611-.927-.84-4.426-1.213-5.076-.543m3.556 1.044c1.173.599 2.223 1.196 2.333 1.327.109.132 1.277.782 2.594 1.445 4.735 2.382 8.794 4.607 9.413 5.159.347.309.908.562 1.249.562.34 0 .841.269 1.115.599.273.329.798.599 1.166.599.369 0 .871.2 1.116.445.51.511 1.322.979 4.798 2.768 1.369.705 2.693 1.528 2.943 1.829.25.3.78.546 1.18.546.399 0 .837.18.973.401.136.22 1.09.782 2.119 1.248 1.03.467 1.962.963 2.072 1.102.11.14 1.188.751 2.395 1.358 3.681 1.851 5.383 2.824 5.523 3.158.073.175.455.318.849.318.394 0 .94.27 1.213.599.273.329.834.599 1.247.599.412 0 .749.143.749.318 0 .175 1.302.996 2.894 1.825s3.433 1.851 4.092 2.272c.659.421 1.467.875 1.797 1.008 1.243.504 5.397 2.664 5.588 2.907.11.139 1.188.766 2.396 1.394 5.522 2.87 12.664 6.742 14.53 7.879.681.414 1.507.862 1.837.995.329.132.778.315.998.406.219.09.956.503 1.637.918.68.414 2.387 1.376 3.792 2.138a312.54 312.54 0 0 1 3.952 2.174 380.37 380.37 0 0 0 4.192 2.306c1.537.834 3.602 1.967 4.59 2.517.989.55 2.381 1.281 3.094 1.624.714.342 1.298.765 1.298.939 0 .442 3.495.396 4.341-.056.664-.356 3.42-.865 8.633-1.596 1.317-.184 2.901-.536 3.519-.78.618-.245 1.696-.448 2.395-.45.699-.002 2.153-.272 3.231-.599 1.078-.327 2.572-.594 3.32-.594.748 0 1.685-.174 2.082-.387.661-.354 1.995-.587 9.006-1.578 1.317-.186 2.901-.539 3.519-.784.618-.245 1.696-.447 2.395-.449.699-.003 2.153-.272 3.231-.599 1.078-.327 2.515-.597 3.194-.601.678-.003 1.952-.264 2.83-.581.879-.316 2.303-.583 3.166-.593.862-.009 2.12-.183 2.794-.386.674-.203 3.022-.66 5.218-1.015 2.196-.356 4.711-.838 5.589-1.071.878-.234 2.495-.505 3.593-.601 1.097-.097 2.355-.351 2.794-.564.439-.214 1.966-.554 3.393-.757 1.427-.203 4.122-.665 5.988-1.027 1.867-.362 4.292-.801 5.389-.975 2.704-.429 6.279-1.136 9.248-1.829 1.353-.316 3.027-.575 3.718-.575.692 0 1.572-.167 1.954-.372.683-.365 3.678-.911 8.833-1.608 1.427-.193 3.104-.547 3.726-.785 1.995-.765 2.217.574 1.053 6.358-.696 3.461-1.287 6.604-1.613 8.583a146.996 146.996 0 0 1-1.63 8.184c-.229.988-.578 2.874-.777 4.191-.997 6.601-1.141 7.377-2.37 12.775-.25 1.098-.577 3.074-.726 4.391-.149 1.317-.414 2.62-.588 2.896-.175.275-.48 1.712-.678 3.193-.784 5.848-1.173 8.136-1.464 8.598-.167.265-.415 1.471-.552 2.678-.136 1.208-.443 3.004-.683 3.992-.807 3.333-1.692 8.138-2.461 13.374-.226 1.536-.531 3.063-.677 3.393-.146.329-.39 1.587-.542 2.794-.151 1.208-.471 3.004-.711 3.992-.494 2.038-1.212 5.636-1.714 8.583l-.78 4.591c-.242 1.427-.608 3.146-.813 3.821-.204.674-.373 1.752-.376 2.395-.003.643-.27 2.157-.594 3.365-1.036 3.86-.571 8.195 1.029 9.58.127.11.498.739.824 1.398.327.658 1.197 2.275 1.934 3.593 1.94 3.467 3.798 6.895 4.976 9.181a90.297 90.297 0 0 0 2.215 3.992c.653 1.098 1.296 2.266 1.43 2.595l.409.998c.091.22.513.938.937 1.597.425.658 1.417 2.455 2.204 3.992a248.397 248.397 0 0 0 3.207 5.988 338.924 338.924 0 0 1 2.195 3.992c.231.439 1.207 2.235 2.17 3.992a190.965 190.965 0 0 1 2.783 5.266c.569 1.14 1.213 2.184 1.432 2.319.219.136.399.595.399 1.021 0 .426.167.775.372.775s.488.364.629.809c.141.446 1.09 2.287 2.109 4.092 2.153 3.816 3.602 6.477 5.048 9.271a94.777 94.777 0 0 0 2.221 3.992c.653 1.098 1.279 2.22 1.392 2.495l.409.998c.112.274.549 1.038.971 1.696.422.659 1.284 2.186 1.916 3.394 2.544 4.861 5.002 9.403 5.292 9.78.33.428 3.374 6.121 5.28 9.874.64 1.259 1.33 2.392 1.534 2.519.205.126.372.655.372 1.177 0 1.157-.508 1.338-5.083 1.813-1.925.2-5.566.648-8.091.995-2.525.348-6.028.778-7.785.957-3.58.364-8.744 1.064-12.441 1.686-1.354.227-3.869.574-5.589.769-8.511.967-10.444 1.221-12.015 1.579-.936.213-2.733.394-3.992.402-1.26.008-3.368.274-4.685.592-1.317.318-3.312.581-4.432.585-1.119.003-2.557.187-3.193.407-.637.221-2.864.578-4.95.795-8.464.879-11.436 1.261-12.603 1.62-.674.208-2.201.384-3.393.392-1.192.007-3.335.271-4.762.585-1.428.313-3.601.577-4.831.584-1.23.008-2.757.192-3.393.408-.637.217-2.864.58-4.95.807-2.086.226-5.655.647-7.932.936l-4.14.524-3.844 4.03c-13.62 14.277-16.499 17.312-18.441 19.443a203.017 203.017 0 0 1-4.166 4.419c-5.423 5.538-11.833 12.29-14.387 15.156a221.81 221.81 0 0 1-5.807 6.218c-6.633 6.777-12.207 12.627-13.286 13.943-.629.768-5.081 5.472-9.894 10.453-4.812 4.982-9.507 9.964-10.433 11.071-.925 1.107-1.967 2.016-2.315 2.02-.628.007-2.775-3.931-4.13-7.577a8.321 8.321 0 0 0-.587-1.198c-.441-.725-3.503-7.143-3.809-7.984a7.914 7.914 0 0 0-.586-1.198c-.203-.329-1.349-2.664-2.547-5.189a2258.527 2258.527 0 0 0-4.774-9.98c-3.037-6.308-3.736-7.863-4.087-9.082-.142-.494-.426-.898-.63-.898-.205 0-.373-.338-.373-.75s-.269-.973-.599-1.246c-.329-.274-.598-.697-.598-.942 0-.456-.158-.801-4.393-9.637-1.368-2.854-2.629-5.549-2.803-5.988a298.8 298.8 0 0 1-.55-1.397 8.697 8.697 0 0 0-.606-1.198 8.214 8.214 0 0 1-.599-1.198 9.022 9.022 0 0 0-.584-1.197c-.197-.329-.692-1.318-1.1-2.196-.408-.878-.877-1.656-1.042-1.73-.165-.073-.299-.404-.299-.736 0-.332-.25-1.081-.554-1.664-.776-1.484-5.004-10.349-5.741-12.037-.664-1.523-.75-1.703-2.442-5.087a255.587 255.587 0 0 1-2.364-4.893 768.816 768.816 0 0 0-3.44-7.189c-1.224-2.526-2.226-4.775-2.226-4.998 0-.437-.617-.767-8.782-4.702-9.274-4.468-10.58-5.068-11.036-5.068-.244 0-.667-.269-.94-.598-.274-.33-.835-.599-1.247-.599-.412 0-.749-.18-.749-.399 0-.22-.18-.4-.399-.4-.495 0-8.249-3.572-11.178-5.149a42.194 42.194 0 0 0-1.996-.946c-.769-.343-3.823-1.781-6.787-3.196-5.7-2.722-10.183-4.818-11.177-5.227a9.833 9.833 0 0 1-1.198-.62 8.316 8.316 0 0 0-1.198-.599 8.421 8.421 0 0 1-1.197-.594c-.329-.203-1.317-.675-2.196-1.049-1.585-.676-5.82-2.682-16.167-7.657-5.778-2.778-9.813-4.671-10.779-5.057a9.387 9.387 0 0 1-1.197-.61c-.33-.203-2.126-1.085-3.992-1.959-1.867-.874-5.46-2.569-7.984-3.767a487.422 487.422 0 0 0-6.278-2.933c-.927-.416-1.691-1.037-1.696-1.38-.008-.463 11.084-11.57 15.722-15.744.244-.219 1.25-1.106 2.236-1.97.986-.864 5.655-5.296 10.376-9.85 4.721-4.554 9.29-8.877 10.153-9.607 1.576-1.332 7.764-7.209 14.163-13.453a301.1 301.1 0 0 1 6.792-6.387 240.699 240.699 0 0 0 6.004-5.639c1.451-1.427 5.406-5.199 8.79-8.383 13.142-12.366 11.863-10.94 12.558-13.998.342-1.499.625-3.589.63-4.644.005-1.054.187-2.635.403-3.514.216-.878.57-3.303.786-5.389.831-8.006 1.214-10.977 1.596-12.35.217-.782.399-2.321.404-3.418.005-1.098.275-3.254.601-4.791.326-1.536.596-3.602.601-4.59.006-.989.195-2.516.42-3.394.404-1.572.79-4.666 1.522-12.211.204-2.106.566-4.531.805-5.39.238-.858.437-2.459.441-3.557.005-1.097.269-3.073.587-4.391.318-1.317.586-3.293.595-4.391.009-1.098.204-2.672.434-3.499s.583-3.162.785-5.19c.897-8.984 1.236-11.76 1.597-13.067.212-.769.385-2.206.386-3.194 0-.988.262-3.234.582-4.99.676-3.702 1.41-8.986 1.706-12.276.239-2.656.177-2.631 2.968-1.207" fill="#345c64"/><path d="M270.858 147.559c-.439.089-1.846.365-3.127.614-3.8.739-3.46-2.771-3.46 35.7 0 32.116.041 34.133.699 34.403 1.3.534 8.307.331 9.021-.261.596-.495.66-2.327.66-19.062v-18.514h3.748c4.708 0 5.185-.33 6.051-4.191.345-1.537.727-3.2.85-3.695.445-1.797-.364-2.094-5.708-2.094h-4.941v-22.375l-1.024-.389c-1.05-.399-1.382-.416-2.769-.136m2.595 11.708c0 13.178-.61 11.99 6.161 11.99 5.31 0 5.022-.304 3.959 4.192-.905 3.825-.863 3.793-4.903 3.793-5.512 0-4.984-1.988-5.217 19.628l-.2 18.495-3.192.119c-1.756.065-3.597.016-4.092-.108l-.899-.226v-33.263c0-38.041-.444-34.158 4.012-35.123 1.416-.306 2.979-.58 3.473-.609l.898-.051v11.163m-170.991-7.304c-.147.146-.266 15.061-.266 33.143v32.878l1.067.406c1.867.709 34.004.313 34.47-.426.672-1.063.482-8.235-.237-8.953-.542-.543-2.242-.628-12.542-.628-6.553 0-12.199-.109-12.546-.242-.554-.213-.632-1.535-.632-10.736 0-9.2.078-10.523.632-10.736.347-.133 3.75-.242 7.561-.242 4.919 0 7.015-.137 7.223-.474.623-1.008 1.476-5.017 1.512-7.111l.039-2.195-8.384-.22c-4.61-.121-8.428-.256-8.483-.3-.324-.258-.031-13.433.314-14.077.395-.738.961-.773 12.694-.773 9.02 0 12.409-.127 12.761-.479.784-.784.65-8.551-.153-8.859-.864-.332-34.698-.309-35.03.024m34.863 4.111c0 4.706.921 4.405-13.466 4.405-8.741 0-12.051.128-12.402.479-.675.675-.675 15.133 0 15.808.339.34 2.713.48 8.135.48 5.999 0 7.754.118 8.11.547.431.519-.602 6.218-1.345 7.421-.162.262-2.867.415-7.339.415-4.976 0-7.224.142-7.561.479-.807.807-.669 22.028.148 22.846.543.542 2.243.627 12.543.627 14.458 0 13.177-.392 13.177 4.027 0 4.421 1.956 4.005-18.163 3.868l-16.368-.111-.102-32.435-.102-32.435h34.735v3.579m12.466 14.854c-.611.61-.706 46.075-.099 47.036.469.741 8.472.878 9.193.157.311-.311.432-5.818.409-18.605-.038-20.92-.366-19.311 3.862-18.971 3.972.319 3.71-1.026 3.71 19.056 0 20.671-.455 18.904 4.92 19.099 5.982.216 5.48 2.016 5.451-19.519-.026-20.008-.173-18.742 2.178-18.742 5.661 0 5.436-.842 5.407 20.229-.017 11.78.11 17.158.411 17.46.855.855 8.355.554 9.029-.364.501-.682.569-3.78.467-21.357l-.118-20.559-.936-1.505c-.515-.828-1.579-1.996-2.364-2.595l-1.428-1.089-19.801-.111c-15.23-.085-19.914.003-20.291.38m50.289.01c-.694.694-.694 69.805 0 70.499.313.314 1.971.479 4.8.479h4.321l.413-1.086c.259-.679.367-4.994.29-11.531l-.124-10.446 5.988-.17c11.67-.332 11.772-.542 11.775-24.274.003-24.981.703-23.95-16.265-23.95-7.805 0-10.849.13-11.198.479m38.688.235c-.36.672-2.041 7.012-2.041 7.696 0 1.205 1.354 1.57 5.829 1.57 3.092 0 5.024.188 5.96.579l1.384.578v3.346c0 4.174.001 4.174-6.786 4.401-9.367.313-10.779 2.231-10.779 14.649 0 9.551.469 11.06 4.192 13.507l1.597 1.049 9.98.141c6.411.091 10.372-.01 11.078-.282l1.097-.423v-20.907c0-24.182.14-23.28-3.992-25.772-1.989-1.2-16.888-1.312-17.519-.132m51.413.442c-3.585 2.275-3.554 2.08-3.554 22.743 0 25.049-.604 24.106 15.569 24.331 11.263.157 12.186-.001 11.843-2.029-.719-4.247-1.155-6.096-1.673-7.097l-.583-1.127-6.776-.126c-8.396-.157-8.201-.037-8.201-5.03v-3.48l5.789-.199c6.858-.237 8.672-.871 10.482-3.662l1.095-1.688-.002-9.401c-.002-10.548-.055-10.78-3.026-13.047l-1.499-1.144-8.814-.104-8.815-.105-1.835 1.165m-100.241.261c1.847.922 3.149 2.704 3.637 4.978.514 2.398.603 39.429.096 40.228-.238.375-1.347.483-4.086.399l-3.759-.116-.199-17.899-.2-17.899-1.085-.933c-1.175-1.01-4.712-1.677-6.507-1.227-1.737.436-1.821 1.361-1.788 19.76.017 9.57.023 17.624.015 17.899-.02.622-7.421.713-7.802.097-.137-.222-.232-7.772-.211-16.778.048-21.126.119-20.873-5.835-20.92-4-.032-3.72-1.507-3.727 19.637l-.006 18.463h-3.56c-1.958 0-3.844-.109-4.192-.242-.659-.253-1.017-45.148-.365-45.799.629-.629 38.279-.294 39.574.352m32.674-.03c3.977 1.984 4.133 2.826 4.133 22.343 0 19.645-.145 20.453-4.106 23.033-.047.03-3.012.165-6.588.299-5.146.193-6.584.368-6.893.842-.232.356-.378 4.902-.36 11.178.016 5.818.019 10.803.006 11.078-.039.82-7.847.694-8.164-.133-.317-.825-.317-67.772 0-68.597.349-.911 20.154-.95 21.972-.043m33.236.243c3.678 2.242 3.678 2.245 3.545 25.516l-.114 19.76-10.181.107c-15.4.16-15.573.011-15.558-13.443.013-12.539 1.207-14.009 11.376-14.009 5.185 0 6.18-.827 6.18-5.137 0-4.663-1.608-5.694-8.709-5.589-5.035.074-5.129-.158-3.035-7.538.276-.97 14.839-.677 16.496.333m53.582-.268c3.526 1.477 4.34 3.917 4.34 13 0 12.163-1.167 13.582-11.175 13.582-7.042 0-6.94-.076-6.716 5.041.245 5.602 1.122 6.137 10.063 6.137h5.453l.415 1.092c.732 1.926 1.521 6.282 1.198 6.612-.173.175-4.999.265-10.725.199-15.65-.179-14.841 1.079-14.841-23.073 0-19.342.087-19.885 3.57-22.255 1.656-1.127 15.909-1.386 18.418-.335m-99.175 7.7c-1.312.34-1.475 2.032-1.475 15.315 0 12.616.033 13.18.799 13.946 1.776 1.777 7.227.554 8.23-1.845.913-2.185.79-23.426-.147-25.3-.975-1.951-4.337-2.912-7.407-2.116m88.797.136c-2.431.545-2.977 1.502-3.171 5.56-.222 4.646-.096 4.803 3.877 4.803 3.591 0 4.607-.528 5.212-2.706 1.458-5.249-1.219-8.712-5.918-7.657m-83.585 1.206c1.677.585 1.685.651 1.691 14.047.007 14.033.18 13.473-4.162 13.473-1.415 0-2.686-.185-2.827-.412-.324-.525-.311-26.615.014-27.141.322-.521 3.756-.499 5.284.033m87.055.01c1.443.504 1.886 1.945 1.578 5.144-.271 2.825-.888 3.264-4.391 3.122l-2.905-.117-.116-3.089c-.185-4.913 1.661-6.514 5.834-5.06M245.11 198.75c-4.144 1.047-4.691 8.628-.736 10.21 5.094 2.039 6.724.783 6.724-5.182 0-5.486-.966-6.297-5.988-5.028m4.79 5.242v4.391h-2.541c-3.786 0-4.644-.803-4.644-4.345 0-3.774.658-4.437 4.406-4.437h2.779v4.391" fill="#a0cfdb"/></g></svg>